<?xml version="1.0" encoding="UTF-8" standalone="no"?>
<svg
   xmlns:dc="http://purl.org/dc/elements/1.1/"
   xmlns:cc="http://creativecommons.org/ns#"
   xmlns:rdf="http://www.w3.org/1999/02/22-rdf-syntax-ns#"
   xmlns:svg="http://www.w3.org/2000/svg"
   xmlns="http://www.w3.org/2000/svg"
   xmlns:xlink="http://www.w3.org/1999/xlink"
   xmlns:sodipodi="http://sodipodi.sourceforge.net/DTD/sodipodi-0.dtd"
   xmlns:inkscape="http://www.inkscape.org/namespaces/inkscape"
   version="1.1"
   x="0px"
   y="0px"
   viewBox="0 0 78 98"
   enable-background="new 0 0 100 100"
   xml:space="preserve"
   id="svg2"
   inkscape:version="0.91 r13725"
   sodipodi:docname="icon.svg"
   width="78"
   height="98"><metadata
     id="metadata77"><rdf:RDF><cc:Work
         rdf:about=""><dc:format>image/svg+xml</dc:format><dc:type
           rdf:resource="http://purl.org/dc/dcmitype/StillImage" /><dc:title></dc:title></cc:Work></rdf:RDF></metadata><defs
     id="defs75" /><sodipodi:namedview
     pagecolor="#ffffff"
     bordercolor="#666666"
     borderopacity="1"
     objecttolerance="10"
     gridtolerance="10"
     guidetolerance="10"
     inkscape:pageopacity="0"
     inkscape:pageshadow="2"
     inkscape:window-width="810"
     inkscape:window-height="691"
     id="namedview73"
     showgrid="false"
     inkscape:zoom="1.888"
     inkscape:cx="50"
     inkscape:cy="62.5"
     inkscape:window-x="11"
     inkscape:window-y="0"
     inkscape:window-maximized="0"
     inkscape:current-layer="svg2" /><symbol
     viewBox="-27.299 -39.024 54.598 78.047"
     id="symbol4"
     transform="translate(0,-27)"><path
       d="M 11.157,34.02 C 9.882,32.17 7.749,30.994 5.424,30.994 c -2.13,0 -4.118,0.985 -5.424,2.607 -1.306,-1.622 -3.294,-2.607 -5.423,-2.607 -2.325,0 -4.457,1.176 -5.734,3.026 -1.275,-1.85 -3.408,-3.026 -5.733,-3.026 -1.913,0 -3.648,0.776 -4.908,2.029 l 0,-66.474 c 1.26,1.253 2.995,2.029 4.908,2.029 2.325,0 4.458,-1.176 5.733,-3.026 1.277,1.85 3.409,3.026 5.734,3.026 2.129,0 4.117,-0.986 5.423,-2.607 1.306,1.622 3.294,2.607 5.424,2.607 2.325,0 4.458,-1.176 5.733,-3.026 1.277,1.85 3.409,3.026 5.734,3.026 1.913,0 3.647,-0.776 4.907,-2.028 l 0,66.473 c -1.26,-1.253 -2.994,-2.028 -4.907,-2.028 -2.324,0 -4.456,1.175 -5.734,3.025 z"
       id="path6"
       inkscape:connector-curvature="0"
       style="fill:none" /><path
       stroke-miterlimit="10"
       d="m -20.463,-37.524 c 0.391,1.615 1.839,2.822 3.573,2.822 1.733,0 3.181,-1.207 3.572,-2.822 l 4.323,0 c 0.391,1.615 1.839,2.822 3.573,2.822 1.734,0 3.182,-1.207 3.573,-2.822 l 3.701,0 c 0.391,1.615 1.839,2.822 3.573,2.822 1.734,0 3.182,-1.207 3.573,-2.822 l 4.322,0 c 0.391,1.615 1.839,2.822 3.573,2.822 1.734,0 3.182,-1.207 3.573,-2.822 l 5.335,0 0,75.047 -5.266,0 c -0.219,-1.825 -1.759,-3.25 -3.641,-3.25 -1.882,0 -3.423,1.425 -3.641,3.25 l -4.188,0 c -0.219,-1.825 -1.759,-3.25 -3.641,-3.25 -1.882,0 -3.423,1.425 -3.641,3.25 l -3.564,0 C -2,35.698 -3.54,34.273 -5.422,34.273 c -1.882,0 -3.423,1.425 -3.641,3.25 l -4.186,0 c -0.219,-1.825 -1.758,-3.25 -3.641,-3.25 -1.883,0 -3.423,1.425 -3.641,3.25 l -5.267,0 0,-75.047 5.335,0 z"
       id="path8"
       inkscape:connector-curvature="0"
       style="fill:#000000;stroke:#000000;stroke-width:3;stroke-miterlimit:10" /></symbol><symbol
     viewBox="-30.282 -48.056 60.563 94.113"
     id="symbol10"
     transform="translate(0,-27)"><path
       stroke-miterlimit="10"
       d="m 16.006,43.056 c -3.233,-4.883 -8.77,-8.108 -15.065,-8.108 -6.295,0 -11.832,3.225 -15.065,8.108 l -10.584,0 0,-88.113 10.584,0 c 3.233,4.883 8.77,8.108 15.065,8.108 6.295,0 11.832,-3.224 15.065,-8.108 l 10.584,0 0,88.113 -10.584,0 z"
       id="path12"
       inkscape:connector-curvature="0"
       style="fill:#000000;stroke:#000000;stroke-width:6;stroke-miterlimit:10" /><line
       stroke-miterlimit="10"
       x1="27.781"
       y1="-20.754999"
       x2="-27.782"
       y2="-20.754999"
       id="line14"
       style="fill:none;stroke:#000000;stroke-width:5;stroke-linecap:round;stroke-linejoin:round;stroke-miterlimit:10;stroke-dasharray:7, 8" /></symbol><symbol
     viewBox="-24.712 -42.834 54.356 85.667"
     id="symbol16"
     transform="translate(0,-27)"><path
       stroke-miterlimit="10"
       d="m 17.181,40.333 -4.475,0 c -0.466,-2.355 -2.539,-4.131 -5.031,-4.131 -2.491,0 -4.565,1.776 -5.03,4.131 l -4.883,0 c -0.466,-2.355 -2.539,-4.131 -5.031,-4.131 -2.491,0 -4.565,1.776 -5.03,4.131 l -4.883,0 c -0.466,-2.355 -2.539,-4.131 -5.03,-4.131 l 0,-72.023 c 2.622,0 4.76,-1.974 5.069,-4.512 l 4.806,0 c 0.309,2.539 2.447,4.512 5.069,4.512 2.622,0 4.76,-1.974 5.069,-4.512 l 4.806,0 c 0.309,2.539 2.447,4.512 5.069,4.512 2.622,0 4.76,-1.974 5.069,-4.512 l 4.398,0 c 0.309,2.539 2.447,4.512 5.069,4.512 l 0,72.023 c -2.492,0 -4.565,1.776 -5.031,4.131 z"
       id="path18"
       inkscape:connector-curvature="0"
       style="fill:#000000;stroke:#000000;stroke-width:5;stroke-miterlimit:10" /><line
       stroke-miterlimit="10"
       x1="-22.643999"
       y1="-17.395"
       x2="27.643999"
       y2="-17.395"
       id="line20"
       style="fill:none;stroke:#000000;stroke-width:4;stroke-linecap:round;stroke-linejoin:round;stroke-miterlimit:10;stroke-dasharray:7, 6" /></symbol><symbol
     viewBox="-23.971 -42.094 47.944 84.188"
     id="symbol22"
     transform="translate(0,-27)"><g
       id="g24"><path
         stroke-miterlimit="10"
         d="m 17.182,40.333 -4.475,0 c -0.466,-2.355 -2.539,-4.131 -5.031,-4.131 -2.491,0 -4.565,1.776 -5.03,4.131 l -4.883,0 c -0.466,-2.355 -2.539,-4.131 -5.031,-4.131 -2.491,0 -4.565,1.776 -5.03,4.131 l -4.883,0 c -0.466,-2.355 -2.539,-4.131 -5.03,-4.131 l 0,-72.023 c 2.622,0 4.76,-1.974 5.069,-4.512 l 4.806,0 c 0.309,2.539 2.447,4.512 5.069,4.512 2.622,0 4.76,-1.974 5.069,-4.512 l 4.806,0 c 0.309,2.539 2.447,4.512 5.069,4.512 2.622,0 4.76,-1.974 5.069,-4.512 l 4.398,0 c 0.309,2.539 2.447,4.512 5.069,4.512 l 0,72.023 c -2.492,0 -4.565,1.776 -5.031,4.131 z"
         id="path26"
         inkscape:connector-curvature="0"
         style="fill:#000000;stroke:#000000;stroke-width:3.52099991;stroke-miterlimit:10" /></g><polygon
       stroke-miterlimit="10"
       points="-11.951,13.62 -5.201,16.919 -0.084,22.42 5.14,17.02 11.952,13.853 8.431,7.217 7.524,-0.241 0.124,1.057 -7.248,-0.385 -8.301,7.053 "
       id="polygon28"
       style="fill:#000000;stroke:#000000;stroke-width:3.81130004;stroke-miterlimit:10" /></symbol><symbol
     id="a"
     viewBox="-21.087 -31.266 42.17 72.87"
     transform="translate(0,-27)"><path
       stroke-miterlimit="10"
       d="m 6.373,39.104 5.21,0 c 0,-3.87 3.13,-7 7,-7 l 0,-53.87 c -3.87,0 -7,-3.14 -7,-7 l -5.21,0"
       id="path31"
       inkscape:connector-curvature="0"
       style="fill:#000000;stroke:#000000;stroke-width:5;stroke-miterlimit:10" /><path
       stroke-miterlimit="10"
       d="m -6.377,-28.766 -5.21,0 c 0,3.86 -3.13,7 -7,7 l 0,53.87 c 3.87,0 7,3.13 7,7 l 5.21,0"
       id="path33"
       inkscape:connector-curvature="0"
       style="fill:#000000;stroke:#000000;stroke-width:5;stroke-miterlimit:10" /><line
       stroke-miterlimit="10"
       x1="2.3729999"
       y1="39.104"
       x2="-2.3770001"
       y2="39.104"
       id="line35"
       style="fill:none;stroke:#000000;stroke-width:5;stroke-miterlimit:10" /><line
       stroke-miterlimit="10"
       x1="2.3729999"
       y1="-28.766001"
       x2="-2.3770001"
       y2="-28.766001"
       id="line37"
       style="fill:none;stroke:#000000;stroke-width:5;stroke-miterlimit:10" /><g
       id="g39"><path
         stroke-miterlimit="10"
         d="m -9.901,-10.118 c 0,-0.994 -0.806,-1.8 -1.8,-1.8 -0.994,0 -1.8,0.806 -1.8,1.8 0,0.994 0.806,1.8 1.8,1.8 0.994,0 1.8,-0.806 1.8,-1.8 z"
         id="path41"
         inkscape:connector-curvature="0"
         style="stroke:#000000;stroke-width:0.89999998;stroke-miterlimit:10" /><path
         stroke-miterlimit="10"
         d="m -2.101,-10.118 c 0,-0.994 -0.806,-1.8 -1.8,-1.8 -0.994,0 -1.8,0.806 -1.8,1.8 0,0.994 0.806,1.8 1.8,1.8 0.994,0 1.8,-0.806 1.8,-1.8 z"
         id="path43"
         inkscape:connector-curvature="0"
         style="stroke:#000000;stroke-width:0.89999998;stroke-miterlimit:10" /><path
         stroke-miterlimit="10"
         d="m 5.699,-10.118 c 0,-0.994 -0.806,-1.8 -1.8,-1.8 -0.994,0 -1.8,0.806 -1.8,1.8 0,0.994 0.806,1.8 1.8,1.8 0.994,0 1.8,-0.806 1.8,-1.8 z"
         id="path45"
         inkscape:connector-curvature="0"
         style="stroke:#000000;stroke-width:0.89999998;stroke-miterlimit:10" /><path
         stroke-miterlimit="10"
         d="m 13.499,-10.118 c 0,-0.994 -0.806,-1.8 -1.8,-1.8 -0.994,0 -1.8,0.806 -1.8,1.8 0,0.994 0.806,1.8 1.8,1.8 0.994,0 1.8,-0.806 1.8,-1.8 z"
         id="path47"
         inkscape:connector-curvature="0"
         style="stroke:#000000;stroke-width:0.89999998;stroke-miterlimit:10" /></g></symbol><symbol
     viewBox="-21.086 -31.266 42.17 72.87"
     id="symbol49"
     transform="translate(0,-27)"><use
       xlink:href="#a"
       width="42.169998"
       height="72.870003"
       x="-21.087"
       y="-31.266001"
       transform="translate(6.996482e-4,26.999733)"
       overflow="visible"
       id="use51"
       style="overflow:visible" /><line
       stroke-miterlimit="10"
       x1="9.224"
       y1="13.75"
       x2="-9.2229996"
       y2="13.75"
       id="line53"
       style="fill:none;stroke:#000000;stroke-width:4;stroke-miterlimit:10" /></symbol><g
     display="none"
     id="g55"
     style="display:none"
     transform="translate(0,-27)"><path
       display="inline"
       d="m 588.792,714.743 -1237.798,0 c -2.084,0 -3.789,-1.705 -3.789,-3.789 l 0,-1187.165 c 0,-2.084 1.705,-3.789 3.789,-3.789 l 1237.798,0 c 2.084,0 3.789,1.705 3.789,3.789 l 0,1187.165 c 10e-4,2.084 -1.704,3.789 -3.789,3.789 z"
       id="path57"
       inkscape:connector-curvature="0"
       style="display:inline;fill:#000000" /></g><g
     id="g59"
     transform="translate(-11.122881,-0.5169487)"><path
       d="m 23.774,8.823 c -1.985,0 -3.599,1.615 -3.599,3.599 0,1.984 1.615,3.6 3.599,3.6 1.984,0 3.6,-1.615 3.6,-3.6 0,-1.985 -1.615,-3.599 -3.6,-3.599 z"
       id="path61"
       inkscape:connector-curvature="0"
       style="fill:none" /><path
       d="m 59.422,26.871 4.572,20.316 c 0.144,0.64 -0.05,1.31 -0.515,1.773 -0.465,0.463 -1.138,0.654 -1.775,0.51 -2.82,-0.644 -5.823,-0.739 -8.944,-0.297 l 1.022,4.254 c 10.964,0.541 22.189,-5.069 25.777,-7.045 L 74.115,22.474 c -4.833,2.342 -10.037,3.66 -14.693,4.397 z"
       id="path63"
       inkscape:connector-curvature="0"
       style="fill:none" /><path
       d="M 59.64,45.248 54.336,21.678 C 50.338,21.446 38.248,21.243 28.688,26.103 l 4.767,27.261 c 2.845,-2.067 9.147,-6.095 16.91,-7.664 3.191,-0.637 6.299,-0.788 9.275,-0.452 z"
       id="path65"
       inkscape:connector-curvature="0"
       style="fill:none" /><path
       d="m 77.292,19.201 c -0.134,-0.59 -0.54,-1.082 -1.094,-1.325 -0.555,-0.244 -1.192,-0.211 -1.716,0.089 -5.016,2.86 -10.809,4.364 -15.906,5.146 L 57.754,19.458 C 57.574,18.661 56.908,18.066 56.096,17.978 55.427,17.905 40.402,16.37 28,22.172 l -0.576,-3.294 c 2.249,-1.277 3.772,-3.69 3.772,-6.455 0,-4.093 -3.33,-7.422 -7.423,-7.422 -4.092,0 -7.422,3.329 -7.422,7.422 0,4.072 3.297,7.386 7.361,7.419 L 36.58,93.418 c 0.162,0.928 0.968,1.582 1.88,1.582 0.109,0 0.22,-0.01 0.331,-0.029 1.04,-0.182 1.735,-1.172 1.553,-2.212 L 34.177,57.491 c 0.189,-0.068 0.371,-0.161 0.537,-0.292 1.159,-0.912 6.909,-5.215 14.304,-7.242 l 1.374,5.719 c 0.19,0.792 0.861,1.377 1.672,1.456 1.088,0.106 2.174,0.155 3.26,0.155 13.775,0 26.827,-7.961 27.417,-8.326 0.694,-0.429 1.04,-1.253 0.859,-2.05 L 77.292,19.201 Z M 23.774,16.022 c -1.985,0 -3.599,-1.615 -3.599,-3.6 0,-1.985 1.615,-3.599 3.599,-3.599 1.984,0 3.6,1.615 3.6,3.599 0,1.984 -1.615,3.6 -3.6,3.6 z M 50.365,45.7 c -7.763,1.569 -14.066,5.597 -16.91,7.664 L 28.688,26.103 c 9.56,-4.859 21.649,-4.657 25.648,-4.425 l 5.304,23.57 C 56.664,44.912 53.556,45.063 50.365,45.7 Z m 3.418,7.727 -1.022,-4.254 c 3.12,-0.442 6.123,-0.347 8.944,0.297 0.637,0.144 1.31,-0.046 1.775,-0.51 0.465,-0.463 0.659,-1.133 0.515,-1.773 L 59.423,26.871 c 4.656,-0.737 9.86,-2.055 14.694,-4.398 l 5.444,23.908 c -3.589,1.976 -14.815,7.587 -25.778,7.046 z"
       id="path67"
       inkscape:connector-curvature="0" /></g></svg>